<?xml version="1.0"?>
<svg xmlns="http://www.w3.org/2000/svg" xmlns:xlink="http://www.w3.org/1999/xlink" xmlns:svgjs="http://svgjs.com/svgjs" version="1.1" width="512" height="512" x="0" y="0" viewBox="0 0 399.2 399.2" style="enable-background:new 0 0 512 512" xml:space="preserve" class=""><g>
<g xmlns="http://www.w3.org/2000/svg">
	<g>
		<path d="M368.111,105.6c0-0.4-0.4-0.8-0.4-0.8c-0.4-0.8-0.8-1.6-1.2-2l-0.4-0.4l-106-100c-0.8-0.8-1.6-1.2-2.4-1.6    c-0.4,0-0.4,0-0.8-0.4c-0.8-0.4-1.6-0.4-2.4-0.4h-0.4h-177.2c-25.6,0-46,20.8-46,46v307.2c0,25.6,20.8,46,46,46h245.2    c25.6,0,46-20.8,46-46V108.4c0-0.4,0-0.4,0-0.4C368.511,107.2,368.111,106.4,368.111,105.6z M262.911,29.6l74.4,70h-74.4V29.6z     M350.511,353.6c0.4,15.6-12.4,28.4-28,28.4h-245.6c-15.6,0-28.4-12.8-28.4-28.4V46.4c0-15.6,12.8-28.4,28.4-28.4h168v90.4    c0,4.8,4,8.8,8.8,8.8h96.8V353.6z" fill="#6382e6" data-original="#000000" style="" class=""/>
	</g>
</g>
<g xmlns="http://www.w3.org/2000/svg">
	<g>
		<path d="M173.311,88.8h-80.8c-4.8,0-8.8,4-8.8,8.8s4,8.8,8.8,8.8h80.8c4.8,0,8.8-4,8.8-8.8S178.111,88.8,173.311,88.8z" fill="#6382e6" data-original="#000000" style="" class=""/>
	</g>
</g>
<g xmlns="http://www.w3.org/2000/svg">
	<g>
		<path d="M292.911,158.4h-200.4c-4.8,0-8.8,4-8.8,8.8c0,4.8,4,8.8,8.8,8.8h200.4c4.8,0,8.8-4,8.8-8.8    C301.711,162.4,297.711,158.4,292.911,158.4z" fill="#6382e6" data-original="#000000" style="" class=""/>
	</g>
</g>
<g xmlns="http://www.w3.org/2000/svg">
	<g>
		<path d="M292.911,216.8h-200.4c-4.8,0-8.8,4-8.8,8.8s4,8.8,8.8,8.8h200.4c4.8,0,8.8-4,8.8-8.8S297.711,216.8,292.911,216.8z" fill="#6382e6" data-original="#000000" style="" class=""/>
	</g>
</g>
<g xmlns="http://www.w3.org/2000/svg">
	<g>
		<path d="M292.911,274.8h-200.4c-4.8,0-8.8,4-8.8,8.8s4,8.8,8.8,8.8h200.4c4.8,0,8.8-4,8.8-8.8S297.711,274.8,292.911,274.8z" fill="#6382e6" data-original="#000000" style="" class=""/>
	</g>
</g>
<g xmlns="http://www.w3.org/2000/svg">
</g>
<g xmlns="http://www.w3.org/2000/svg">
</g>
<g xmlns="http://www.w3.org/2000/svg">
</g>
<g xmlns="http://www.w3.org/2000/svg">
</g>
<g xmlns="http://www.w3.org/2000/svg">
</g>
<g xmlns="http://www.w3.org/2000/svg">
</g>
<g xmlns="http://www.w3.org/2000/svg">
</g>
<g xmlns="http://www.w3.org/2000/svg">
</g>
<g xmlns="http://www.w3.org/2000/svg">
</g>
<g xmlns="http://www.w3.org/2000/svg">
</g>
<g xmlns="http://www.w3.org/2000/svg">
</g>
<g xmlns="http://www.w3.org/2000/svg">
</g>
<g xmlns="http://www.w3.org/2000/svg">
</g>
<g xmlns="http://www.w3.org/2000/svg">
</g>
<g xmlns="http://www.w3.org/2000/svg">
</g>
</g></svg>
